<svg viewBox="0 0 20 12" fill="none" xmlns="http://www.w3.org/2000/svg">
<path d="M19.1711 9.50789C18.5757 8.79367 17.8749 8.18411 17.2119 7.53683C16.6137 6.95338 16.576 6.61492 17.0568 5.94153C17.5816 5.20657 18.146 4.49981 18.6756 3.76817C19.1699 3.08441 19.6752 2.40252 19.9353 1.58383C20.1003 1.06298 19.9544 0.832921 19.4203 0.741726C19.3282 0.725766 19.2331 0.724937 19.1394 0.724937L15.9706 0.721207C15.5803 0.715403 15.3646 0.885566 15.2265 1.23149C15.0402 1.69907 14.8481 2.16624 14.6261 2.61745C14.1224 3.6405 13.5599 4.62935 12.7713 5.46669C12.5974 5.65136 12.4051 5.88474 12.1145 5.78857C11.7509 5.65592 11.6438 5.05693 11.6498 4.85444L11.6467 1.19687C11.5762 0.674365 11.4603 0.441402 10.9416 0.339844L7.64983 0.340466C7.21043 0.340466 6.99011 0.510213 6.75549 0.785043C6.62015 0.943806 6.57932 1.04682 6.85746 1.09946C7.40381 1.20309 7.71159 1.55668 7.79325 2.10448C7.92424 2.97975 7.91512 3.85854 7.83968 4.73733C7.8175 4.99392 7.77336 5.24989 7.67159 5.48949C7.51241 5.86608 7.25541 5.94277 6.91778 5.71105C6.61207 5.5013 6.39734 5.20533 6.18718 4.90812C5.39772 3.79263 4.76784 2.58968 4.25425 1.32558C4.10585 0.960388 3.84988 0.739031 3.46292 0.733021C2.51221 0.71789 1.56129 0.715403 0.610575 0.73385C0.0385308 0.744627 -0.132046 1.02236 0.100917 1.54093C1.1364 3.84424 2.28899 6.0835 3.7935 8.12338C4.56597 9.17026 5.45285 10.0944 6.59859 10.7494C7.89709 11.4918 9.29487 11.7152 10.7671 11.6464C11.4564 11.6141 11.6635 11.4348 11.6954 10.7477C11.7169 10.2777 11.7702 9.81029 12.0021 9.38789C12.2297 8.97336 12.5744 8.8944 12.9717 9.15223C13.1705 9.28135 13.3379 9.44571 13.4961 9.61898C13.8841 10.0435 14.2582 10.4808 14.6609 10.891C15.166 11.405 15.7644 11.7086 16.5167 11.6466L19.4292 11.6473C19.8984 11.6166 20.1417 11.0412 19.8723 10.5175C19.6831 10.1506 19.4348 9.82397 19.1711 9.50789Z" />
</svg>
