<svg viewBox="0 0 20 20" fill="none" xmlns="http://www.w3.org/2000/svg">
<path d="M19.6544 5.27369C19.4095 4.21005 18.5396 3.42533 17.4922 3.30827C15.0121 3.03142 12.5019 3.02998 10.0032 3.03142C7.5041 3.02998 4.99344 3.03142 2.51334 3.30827C1.46663 3.42533 0.597265 4.21005 0.352413 5.27369C0.00392259 6.78843 0 8.4419 0 10.0014C0 11.561 0 13.2142 0.34849 14.7288C0.592929 15.7922 1.4625 16.5769 2.50983 16.6942C4.98973 16.9712 7.50018 16.9727 9.99928 16.9712C12.4988 16.9727 15.0086 16.9712 17.4883 16.6942C18.535 16.5771 19.4052 15.7924 19.6501 14.7288C19.9988 13.214 20 11.5608 20 10.0014C20 8.4419 20.0029 6.78843 19.6544 5.27369ZM7.41905 13.1056C7.41905 10.8933 7.41905 8.70409 7.41905 6.49155C9.53868 7.59751 11.6443 8.69604 13.7773 9.80881C11.6509 10.9117 9.54426 12.0036 7.41905 13.1056Z" />
</svg>
