<svg viewBox="0 0 20 20" fill="none" xmlns="http://www.w3.org/2000/svg">
<path d="M10.0005 8.6316L10.3666 7.99746C10.4768 7.80668 10.4033 7.63824 10.3666 7.57469C10.3299 7.51113 10.2208 7.36328 10.0005 7.36328C9.78016 7.36328 9.67102 7.51109 9.63434 7.57469C9.59766 7.63824 9.52418 7.80664 9.63434 7.99746L10.0005 8.6316Z" />
<path d="M5.99372 13.8793C5.95704 13.9429 5.88356 14.1113 5.99372 14.3021C6.10383 14.4929 6.28641 14.5135 6.35981 14.5135C6.43321 14.5135 6.61579 14.4929 6.72594 14.3021L7.09208 13.668H6.35981C6.13954 13.668 6.03043 13.8158 5.99372 13.8793V13.8793Z" />
<path d="M9.12207 12.497H10.8778L9.99992 10.9766L9.12207 12.497Z" />
<path d="M13.125 5.07812C12.8014 5.07812 12.5391 4.81578 12.5391 4.49219V0H4.14062C3.17137 0 2.38281 0.788555 2.38281 1.75781V18.2422C2.38281 19.2114 3.17137 20 4.14062 20H15.8594C16.8286 20 17.6172 19.2114 17.6172 18.2422V5.07812H13.125ZM15.0208 14.887C14.7326 15.3863 14.2163 15.6843 13.6398 15.6843C13.0633 15.6843 12.5471 15.3863 12.2588 14.887L11.5544 13.667H8.44559L7.74117 14.887C7.45293 15.3863 6.93664 15.6843 6.36016 15.6843C6.36012 15.6843 6.36016 15.6843 6.36012 15.6843C5.78363 15.6843 5.26738 15.3862 4.97918 14.887C4.69094 14.3878 4.6909 13.7916 4.97918 13.2924C5.26742 12.7931 5.78367 12.4951 6.36016 12.4951H7.76898L9.3234 9.80273L8.61898 8.58266C8.33074 8.0834 8.3307 7.48727 8.61898 6.98801C8.90723 6.48875 9.42348 6.19066 10 6.19066C10.5765 6.19066 11.0928 6.48871 11.381 6.98801C11.6693 7.48727 11.6693 8.0834 11.381 8.58266L10.6766 9.80273L12.231 12.4951H13.6398C14.2163 12.4951 14.7325 12.7931 15.0208 13.2924C15.3091 13.7916 15.309 14.3878 15.0208 14.887Z" />
<path d="M13.6395 13.668H12.9072L13.2734 14.3021C13.3835 14.4929 13.5661 14.5135 13.6395 14.5135C13.7129 14.5135 13.8955 14.4929 14.0056 14.3021C14.1157 14.1113 14.0423 13.9429 14.0056 13.8793C13.9689 13.8158 13.8598 13.668 13.6395 13.668Z" />
<path d="M13.7109 0.34375V3.90692H17.2739L13.7109 0.34375Z" />
</svg>
