<svg width="38" height="28" viewBox="0 0 38 28" fill="none" xmlns="http://www.w3.org/2000/svg">
<path d="M7.24997 9.94459C6.425 7.86963 5.12502 5.8196 3.38751 3.84458C2.83751 3.21958 2.76251 2.31962 3.2125 1.61962C3.56254 1.06962 4.13749 0.76963 4.76249 0.76963C4.9375 0.76963 5.11252 0.782066 5.28754 0.844629C8.96246 1.91962 17.55 5.73209 17.7875 17.9571C17.875 22.6696 14.425 26.7196 9.9375 27.1821C7.45001 27.4321 4.97504 26.6196 3.1375 24.9696C1.30004 23.3071 0.25 20.9321 0.25 18.4571C0.25 14.3321 3.17504 10.7196 7.24997 9.94459Z" fill="#50148C"/>
<path d="M29.888 27.1821C27.4129 27.4321 24.9379 26.6196 23.1005 24.9696C21.2629 23.3071 20.2129 20.9321 20.2129 18.4571C20.2129 14.3321 23.1379 10.7196 27.2129 9.94459C26.3879 7.86963 25.0879 5.8196 23.3504 3.84459C22.8004 3.21959 22.7254 2.31963 23.1755 1.61963C23.5254 1.06963 24.1005 0.769642 24.7255 0.769642C24.9004 0.769642 25.0754 0.782078 25.2504 0.844641C28.9254 1.91963 37.5129 5.73211 37.7504 17.9571V18.1321C37.7504 22.7696 34.3379 26.7196 29.888 27.1821Z" fill="#50148C"/>
</svg>
