<svg width="74" height="74" viewBox="0 0 74 74" fill="none" xmlns="http://www.w3.org/2000/svg">
<g clip-path="url(#clip0_110_5240)">
<rect width="74" height="74" rx="37" fill="#F4F7FF"/>
<path d="M60.0086 13.3969L41.7715 2.86769L45.4799 -3.55554L43.9714 -9.18536L38.3416 -7.67685L34.6332 -1.25363L16.3961 -11.7828L5.8669 6.45426L-0.556321 2.74581L-6.18615 4.25432L-4.67764 9.88414L1.74558 13.5926L-8.7836 31.8297L9.45348 42.3588L5.74502 48.7821L7.25353 54.4119L12.8834 52.9034L16.5918 46.4802L34.8289 57.0093L45.3581 38.7723L51.7813 42.4807L57.4111 40.9722L55.9026 35.3424L49.4794 31.6339L60.0086 13.3969ZM50.9856 37.2625L37.7021 40.8218L32.7773 49.3527L24.2468 44.4271L10.9633 47.9864L7.40398 34.7029L-1.12697 29.7781L3.79863 21.2476L0.239325 7.96407L13.5228 4.40476L18.4477 -4.12618L26.9782 0.799412L40.2617 -2.75989L43.821 10.5236L52.3519 15.4484L47.4263 23.979L50.9856 37.2625Z" fill="#E0DBF2"/>
</g>
<defs>
<clipPath id="clip0_110_5240">
<rect width="74" height="74" rx="37" fill="white"/>
</clipPath>
</defs>
</svg>
