<svg width="12" height="12" viewBox="0 0 12 12" fill="none" xmlns="http://www.w3.org/2000/svg">
<path d="M0.324898 9.1937C-0.107323 9.62593 -0.107323 10.3267 0.324898 10.7589C0.757118 11.1911 1.45789 11.1911 1.89011 10.7589L5.54133 7.1077L9.1937 10.7601C9.62592 11.1923 10.3267 11.1923 10.7589 10.7601C11.1911 10.3279 11.1911 9.62708 10.7589 9.19486L7.10654 5.54249L10.7597 1.88938C11.1919 1.45715 11.1919 0.756387 10.7597 0.324167C10.3274 -0.108057 9.62669 -0.108054 9.19447 0.324167L5.54133 3.97729L1.88935 0.325326C1.45713 -0.106898 0.756386 -0.106898 0.324165 0.325326C-0.108055 0.757547 -0.108055 1.45832 0.324165 1.89054L3.97611 5.54249L0.324898 9.1937Z" fill="#50148C"/>
</svg>
