<?xml version="1.0" encoding="UTF-8"?><!DOCTYPE svg PUBLIC "-//W3C//DTD SVG 1.1//EN" "http://www.w3.org/Graphics/SVG/1.1/DTD/svg11.dtd"><svg xmlns="http://www.w3.org/2000/svg" xmlns:xlink="http://www.w3.org/1999/xlink"><symbol id="arrow" viewBox="0 0 8 16">
<path d="M8 8.00003C8 8.28678 7.90396 8.5735 7.71229 8.79212L1.67776 15.6718C1.29388 16.1094 0.671503 16.1094 0.287787 15.6718C-0.095929 15.2343 -0.095929 14.5249 0.287787 14.0872L5.62748 8.00003L0.287973 1.91279C-0.0957427 1.47515 -0.0957427 0.765811 0.287973 0.328387C0.671689 -0.109461 1.29407 -0.109461 1.67794 0.328387L7.71248 7.20793C7.90418 7.42666 8 7.71338 8 8.00003Z"/>
</symbol><symbol id="fb" viewBox="0 0 20 20">
<path d="M15.1929 3.31986L13.3103 3.32069C11.8342 3.32069 11.5484 4.02216 11.5484 5.0516V7.32144H15.0688L15.0676 10.8768H11.5484V20H7.87647V10.8768H4.80664V7.32144H7.87647V4.69972C7.87647 1.65692 9.7352 0 12.4496 0L15.1931 0.00436468L15.1929 3.31986Z"/>
</symbol><symbol id="inst" viewBox="0 0 20 20">
<path d="M14.4805 0H5.51913C2.47588 0 0 2.476 0 5.51924V14.4806C0 17.524 2.47588 19.9999 5.51913 19.9999H14.4805C17.524 19.9999 19.9999 17.5239 19.9999 14.4806V5.51924C20 2.476 17.524 0 14.4805 0ZM18.2255 14.4806C18.2255 16.5455 16.5455 18.2254 14.4806 18.2254H5.51913C3.45433 18.2255 1.77449 16.5455 1.77449 14.4806V5.51924C1.77449 3.45445 3.45433 1.77449 5.51913 1.77449H14.4805C16.5454 1.77449 18.2254 3.45445 18.2254 5.51924V14.4806H18.2255Z"/>
<path d="M10.0001 4.84766C7.15848 4.84766 4.84668 7.15946 4.84668 10.0011C4.84668 12.8427 7.15848 15.1543 10.0001 15.1543C12.8418 15.1543 15.1536 12.8427 15.1536 10.0011C15.1536 7.15946 12.8418 4.84766 10.0001 4.84766ZM10.0001 13.3797C8.13705 13.3797 6.62117 11.8641 6.62117 10.001C6.62117 8.13779 8.13693 6.62202 10.0001 6.62202C11.8634 6.62202 13.3791 8.13779 13.3791 10.001C13.3791 11.8641 11.8632 13.3797 10.0001 13.3797Z"/>
<path d="M15.3696 3.34375C15.0278 3.34375 14.6919 3.48216 14.4505 3.72467C14.2078 3.966 14.0684 4.30197 14.0684 4.64504C14.0684 4.98704 14.208 5.32289 14.4505 5.56541C14.6918 5.80674 15.0278 5.94633 15.3696 5.94633C15.7127 5.94633 16.0475 5.80674 16.29 5.56541C16.5325 5.32289 16.6709 4.98692 16.6709 4.64504C16.6709 4.30197 16.5325 3.966 16.29 3.72467C16.0487 3.48216 15.7127 3.34375 15.3696 3.34375Z"/>
</symbol><symbol id="pdf" viewBox="0 0 20 20">
<path d="M10.0005 8.6316L10.3666 7.99746C10.4768 7.80668 10.4033 7.63824 10.3666 7.57469C10.3299 7.51113 10.2208 7.36328 10.0005 7.36328C9.78016 7.36328 9.67102 7.51109 9.63434 7.57469C9.59766 7.63824 9.52418 7.80664 9.63434 7.99746L10.0005 8.6316Z"/>
<path d="M5.99372 13.8793C5.95704 13.9429 5.88356 14.1113 5.99372 14.3021C6.10383 14.4929 6.28641 14.5135 6.35981 14.5135C6.43321 14.5135 6.61579 14.4929 6.72594 14.3021L7.09208 13.668H6.35981C6.13954 13.668 6.03043 13.8158 5.99372 13.8793V13.8793Z"/>
<path d="M9.12207 12.497H10.8778L9.99992 10.9766L9.12207 12.497Z"/>
<path d="M13.125 5.07812C12.8014 5.07812 12.5391 4.81578 12.5391 4.49219V0H4.14062C3.17137 0 2.38281 0.788555 2.38281 1.75781V18.2422C2.38281 19.2114 3.17137 20 4.14062 20H15.8594C16.8286 20 17.6172 19.2114 17.6172 18.2422V5.07812H13.125ZM15.0208 14.887C14.7326 15.3863 14.2163 15.6843 13.6398 15.6843C13.0633 15.6843 12.5471 15.3863 12.2588 14.887L11.5544 13.667H8.44559L7.74117 14.887C7.45293 15.3863 6.93664 15.6843 6.36016 15.6843C6.36012 15.6843 6.36016 15.6843 6.36012 15.6843C5.78363 15.6843 5.26738 15.3862 4.97918 14.887C4.69094 14.3878 4.6909 13.7916 4.97918 13.2924C5.26742 12.7931 5.78367 12.4951 6.36016 12.4951H7.76898L9.3234 9.80273L8.61898 8.58266C8.33074 8.0834 8.3307 7.48727 8.61898 6.98801C8.90723 6.48875 9.42348 6.19066 10 6.19066C10.5765 6.19066 11.0928 6.48871 11.381 6.98801C11.6693 7.48727 11.6693 8.0834 11.381 8.58266L10.6766 9.80273L12.231 12.4951H13.6398C14.2163 12.4951 14.7325 12.7931 15.0208 13.2924C15.3091 13.7916 15.309 14.3878 15.0208 14.887Z"/>
<path d="M13.6395 13.668H12.9072L13.2734 14.3021C13.3835 14.4929 13.5661 14.5135 13.6395 14.5135C13.7129 14.5135 13.8955 14.4929 14.0056 14.3021C14.1157 14.1113 14.0423 13.9429 14.0056 13.8793C13.9689 13.8158 13.8598 13.668 13.6395 13.668Z"/>
<path d="M13.7109 0.34375V3.90692H17.2739L13.7109 0.34375Z"/>
</symbol><symbol id="tg" viewBox="0 0 20 20">
<path d="M7.84765 12.6525L7.51682 17.3058C7.99015 17.3058 8.19515 17.1025 8.44098 16.8583L10.6601 14.7375L15.2585 18.105C16.1018 18.575 16.696 18.3275 16.9235 17.3291L19.9418 3.18581L19.9426 3.18497C20.2101 1.93831 19.4918 1.45081 18.6701 1.75664L0.928482 8.54914C-0.282352 9.01914 -0.264018 9.69414 0.722648 9.99997L5.25848 11.4108L15.7943 4.81831C16.2901 4.48997 16.741 4.67164 16.3701 4.99997L7.84765 12.6525Z"/>
</symbol><symbol id="vk" viewBox="0 0 20 12">
<path d="M19.1711 9.50789C18.5757 8.79367 17.8749 8.18411 17.2119 7.53683C16.6137 6.95338 16.576 6.61492 17.0568 5.94153C17.5816 5.20657 18.146 4.49981 18.6756 3.76817C19.1699 3.08441 19.6752 2.40252 19.9353 1.58383C20.1003 1.06298 19.9544 0.832921 19.4203 0.741726C19.3282 0.725766 19.2331 0.724937 19.1394 0.724937L15.9706 0.721207C15.5803 0.715403 15.3646 0.885566 15.2265 1.23149C15.0402 1.69907 14.8481 2.16624 14.6261 2.61745C14.1224 3.6405 13.5599 4.62935 12.7713 5.46669C12.5974 5.65136 12.4051 5.88474 12.1145 5.78857C11.7509 5.65592 11.6438 5.05693 11.6498 4.85444L11.6467 1.19687C11.5762 0.674365 11.4603 0.441402 10.9416 0.339844L7.64983 0.340466C7.21043 0.340466 6.99011 0.510213 6.75549 0.785043C6.62015 0.943806 6.57932 1.04682 6.85746 1.09946C7.40381 1.20309 7.71159 1.55668 7.79325 2.10448C7.92424 2.97975 7.91512 3.85854 7.83968 4.73733C7.8175 4.99392 7.77336 5.24989 7.67159 5.48949C7.51241 5.86608 7.25541 5.94277 6.91778 5.71105C6.61207 5.5013 6.39734 5.20533 6.18718 4.90812C5.39772 3.79263 4.76784 2.58968 4.25425 1.32558C4.10585 0.960388 3.84988 0.739031 3.46292 0.733021C2.51221 0.71789 1.56129 0.715403 0.610575 0.73385C0.0385308 0.744627 -0.132046 1.02236 0.100917 1.54093C1.1364 3.84424 2.28899 6.0835 3.7935 8.12338C4.56597 9.17026 5.45285 10.0944 6.59859 10.7494C7.89709 11.4918 9.29487 11.7152 10.7671 11.6464C11.4564 11.6141 11.6635 11.4348 11.6954 10.7477C11.7169 10.2777 11.7702 9.81029 12.0021 9.38789C12.2297 8.97336 12.5744 8.8944 12.9717 9.15223C13.1705 9.28135 13.3379 9.44571 13.4961 9.61898C13.8841 10.0435 14.2582 10.4808 14.6609 10.891C15.166 11.405 15.7644 11.7086 16.5167 11.6466L19.4292 11.6473C19.8984 11.6166 20.1417 11.0412 19.8723 10.5175C19.6831 10.1506 19.4348 9.82397 19.1711 9.50789Z"/>
</symbol><symbol id="ytb" viewBox="0 0 20 20">
<path d="M19.6544 5.27369C19.4095 4.21005 18.5396 3.42533 17.4922 3.30827C15.0121 3.03142 12.5019 3.02998 10.0032 3.03142C7.5041 3.02998 4.99344 3.03142 2.51334 3.30827C1.46663 3.42533 0.597265 4.21005 0.352413 5.27369C0.00392259 6.78843 0 8.4419 0 10.0014C0 11.561 0 13.2142 0.34849 14.7288C0.592929 15.7922 1.4625 16.5769 2.50983 16.6942C4.98973 16.9712 7.50018 16.9727 9.99928 16.9712C12.4988 16.9727 15.0086 16.9712 17.4883 16.6942C18.535 16.5771 19.4052 15.7924 19.6501 14.7288C19.9988 13.214 20 11.5608 20 10.0014C20 8.4419 20.0029 6.78843 19.6544 5.27369ZM7.41905 13.1056C7.41905 10.8933 7.41905 8.70409 7.41905 6.49155C9.53868 7.59751 11.6443 8.69604 13.7773 9.80881C11.6509 10.9117 9.54426 12.0036 7.41905 13.1056Z"/>
</symbol></svg>