<svg width="38" height="78" viewBox="0 0 38 78" fill="none" xmlns="http://www.w3.org/2000/svg">
<path d="M1.77588 0.714844C0.649676 2.54284 0 4.69573 0 7.00036V71.0004C0 73.305 0.649675 75.4579 1.77587 77.2859L35.5729 44.6572C38.809 41.533 38.809 36.4677 35.573 33.3435L1.77588 0.714844Z" fill="url(#paint0_linear_257_2313)"/>
<path d="M26 39L22.2365 35.2365L23.5621 33.911V32.4379H22.089L20.7635 33.7635L17 30L13.2365 33.7635L11.911 32.4379H10.4379V33.911L11.7635 35.2365L8 39L11.7635 42.7635L10.4379 44.089V45.5621H11.911L13.2365 44.2365L17 48L20.7635 44.2365L22.089 45.5621H23.5621V44.089L22.2365 42.7635L26 39ZM22.2361 44.2361H18.7604L17 45.9966L15.2397 44.2361H11.7639V40.7603L10.0034 39L11.7639 37.2397V33.7639H15.2397L17 32.0034L18.7604 33.7639H22.2361V37.2397L23.9966 39L22.2361 40.7603V44.2361Z" fill="#621BA9"/>
<defs>
<linearGradient id="paint0_linear_257_2313" x1="19" y1="-1" x2="19" y2="79" gradientUnits="userSpaceOnUse">
<stop stop-color="#FCFCFF"/>
<stop offset="1" stop-color="#F1F1FF"/>
</linearGradient>
</defs>
</svg>
